<?xml version="1.0" encoding="iso-8859-1"?>
<!-- Generator: Adobe Illustrator 16.0.0, SVG Export Plug-In . SVG Version: 6.00 Build 0)  -->
<!DOCTYPE svg PUBLIC "-//W3C//DTD SVG 1.1//EN" "http://www.w3.org/Graphics/SVG/1.1/DTD/svg11.dtd">
<svg xmlns="http://www.w3.org/2000/svg" xmlns:xlink="http://www.w3.org/1999/xlink" version="1.1" id="Capa_1" x="0px" y="0px" width="512px" height="512px" viewBox="0 0 658.338 658.338" style="enable-background:new 0 0 658.338 658.338;" xml:space="preserve">
<g>
	<g id="_x31_4">
		<g>
			<path d="M628.609,264.134c-13.609-25.68-42.777-26.598-53.654-23.385c-18.566,5.6-37.132,39.174-37.132,39.174     s1.056-42.892-9.685-59.988c-9.317-14.871-30.591-23.684-30.591-23.684s-21.503-4.773-33.918,3.167     c-19.346,12.393-32.771,60.929-32.771,60.929s-0.734-51.245-13.333-68.8c-12.852-17.923-54.596-29.398-73.597-11.773     c-25.313,23.431-46.449,71.807-46.449,71.807V57.801c0,0,1.859-21.526-7.275-36.236c-11.382-18.29-41.468-33.368-65.129-8.514     c-12.667,13.356-11.91,39.702-11.91,39.702v388.914c0,0,0.734,36.604-9.685,53.287c-8.17,13.104-28.066,7.184-28.066,7.184     l-70.476-76.765c0,0-18.313-15.191-35.204-16.66c-35.272-3.053-50.189,15.353-45.806,46.012     c2.662,18.704,18.083,34.859,18.083,34.859l137.166,134.618c0,0,30.591,27.31,74.492,30.361     c111.624,7.665,304.141,1.285,304.141,1.285s52.14-34.606,58.244-63.958c19.759-95.077,18.635-286.057,18.635-286.057     S637.65,281.208,628.609,264.134z" fill="#91DC5A"/>
		</g>
	</g>
</g>
<g>
</g>
<g>
</g>
<g>
</g>
<g>
</g>
<g>
</g>
<g>
</g>
<g>
</g>
<g>
</g>
<g>
</g>
<g>
</g>
<g>
</g>
<g>
</g>
<g>
</g>
<g>
</g>
<g>
</g>
</svg>
